<svg width="50" height="50" viewBox="0 0 50 50" fill="none" xmlns="http://www.w3.org/2000/svg">
<path d="M39.6152 38.5098C39.7618 38.6564 39.8441 38.8552 39.8441 39.0625C39.8441 39.2698 39.7618 39.4686 39.6152 39.6152C39.4686 39.7618 39.2698 39.8442 39.0624 39.8442C38.8551 39.8442 38.6563 39.7618 38.5097 39.6152L24.9999 26.1055L11.4902 39.6152C11.3436 39.7618 11.1448 39.8442 10.9374 39.8442C10.7301 39.8442 10.5313 39.7618 10.3847 39.6152C10.2381 39.4686 10.1558 39.2698 10.1558 39.0625C10.1558 38.8552 10.2381 38.6564 10.3847 38.5098L23.8945 25L10.3847 11.4902C10.2381 11.3436 10.1558 11.1448 10.1558 10.9375C10.1558 10.7302 10.2381 10.5314 10.3847 10.3848C10.5313 10.2382 10.7301 10.1558 10.9374 10.1558C11.1448 10.1558 11.3436 10.2382 11.4902 10.3848L24.9999 23.8945L38.5097 10.3848C38.5823 10.3122 38.6685 10.2546 38.7633 10.2153C38.8581 10.176 38.9598 10.1558 39.0624 10.1558C39.1651 10.1558 39.2667 10.176 39.3616 10.2153C39.4564 10.2546 39.5426 10.3122 39.6152 10.3848C39.6878 10.4574 39.7453 10.5435 39.7846 10.6384C39.8239 10.7332 39.8441 10.8349 39.8441 10.9375C39.8441 11.0402 39.8239 11.1418 39.7846 11.2366C39.7453 11.3315 39.6878 11.4177 39.6152 11.4902L26.1054 25L39.6152 38.5098Z" fill="black"/>
</svg>
