<svg width="50" height="50" viewBox="0 0 50 50" fill="none" xmlns="http://www.w3.org/2000/svg">
<path d="M39.6152 38.5097C39.7618 38.6563 39.8441 38.8551 39.8441 39.0624C39.8441 39.2698 39.7618 39.4686 39.6152 39.6152C39.4686 39.7618 39.2698 39.8441 39.0624 39.8441C38.8551 39.8441 38.6563 39.7618 38.5097 39.6152L24.9999 26.1054L11.4902 39.6152C11.3436 39.7618 11.1448 39.8441 10.9374 39.8441C10.7301 39.8441 10.5313 39.7618 10.3847 39.6152C10.2381 39.4686 10.1558 39.2698 10.1558 39.0624C10.1558 38.8551 10.2381 38.6563 10.3847 38.5097L23.8945 24.9999L10.3847 11.4902C10.2381 11.3436 10.1558 11.1448 10.1558 10.9374C10.1558 10.7301 10.2381 10.5313 10.3847 10.3847C10.5313 10.2381 10.7301 10.1558 10.9374 10.1558C11.1448 10.1558 11.3436 10.2381 11.4902 10.3847L24.9999 23.8945L38.5097 10.3847C38.5823 10.3121 38.6685 10.2545 38.7633 10.2153C38.8581 10.176 38.9598 10.1558 39.0624 10.1558C39.1651 10.1558 39.2667 10.176 39.3616 10.2153C39.4564 10.2545 39.5426 10.3121 39.6152 10.3847C39.6878 10.4573 39.7453 10.5435 39.7846 10.6383C39.8239 10.7331 39.8441 10.8348 39.8441 10.9374C39.8441 11.0401 39.8239 11.1417 39.7846 11.2366C39.7453 11.3314 39.6878 11.4176 39.6152 11.4902L26.1054 24.9999L39.6152 38.5097Z" fill="black"/>
</svg>
