<svg width="50" height="50" viewBox="0 0 50 50" fill="none" xmlns="http://www.w3.org/2000/svg">
<path d="M10.4167 10.4166H37.5001C39.1577 10.4166 40.7474 11.0751 41.9195 12.2472C43.0916 13.4193 43.7501 15.009 43.7501 16.6666V35.4166C43.7501 37.0742 43.0916 38.6639 41.9195 39.836C40.7474 41.0081 39.1577 41.6666 37.5001 41.6666H10.4167C8.75914 41.6666 7.16943 41.0081 5.99733 39.836C4.82523 38.6639 4.16675 37.0742 4.16675 35.4166V16.6666C4.16675 15.009 4.82523 13.4193 5.99733 12.2472C7.16943 11.0751 8.75914 10.4166 10.4167 10.4166ZM10.4167 12.5C9.37508 12.5 8.45841 12.8541 7.75008 13.4791L23.9584 23.9583L40.1667 13.4791C39.4584 12.8541 38.5417 12.5 37.5001 12.5H10.4167ZM23.9584 26.4791L6.52091 15.1666C6.35425 15.625 6.25008 16.1458 6.25008 16.6666V35.4166C6.25008 36.5217 6.68907 37.5815 7.47047 38.3629C8.25187 39.1443 9.31168 39.5833 10.4167 39.5833H37.5001C38.6051 39.5833 39.665 39.1443 40.4464 38.3629C41.2278 37.5815 41.6667 36.5217 41.6667 35.4166V16.6666C41.6667 16.1458 41.5626 15.625 41.3959 15.1666L23.9584 26.4791Z" fill="#9A9A9A"/>
</svg>
